<svg
	xmlns="http://www.w3.org/2000/svg"
	viewBox="0 0 140.8 119.1"
>
	<!-- Corchetes -->
	<g fill="#CBD5E1">
		<path
			d="M97.9 98.7c-2 0-3.7-1.5-3.9-3.5-.2-2.2 1.4-4.1 3.5-4.3.1 0 5.5-.7 8.1-4.4 1.5-2.2 1.8-5.3.8-9.2-1.8-7.1-1.2-12.7 1.9-16.6.3-.4.7-.8 1-1.2-.3-.4-.7-.7-1-1.2-3.1-3.9-3.7-9.5-1.9-16.6 1-3.9.7-7-.9-9.2-2.6-3.7-8-4.3-8-4.3-2.2-.2-3.7-2.1-3.5-4.3s2.1-3.7 4.3-3.5c.4 0 9 1 13.7 7.6 2.9 4.2 3.6 9.5 2 15.7-1.2 4.5-1 7.9.5 9.8 1.5 1.9 4.2 2 4.2 2 2.2 0 3.9 1.8 3.9 3.9 0 2.2-1.7 3.9-3.9 3.9-.1 0-2.8.1-4.3 2.1-1.4 1.9-1.6 5.3-.5 9.8 1.6 6.2.9 11.5-2 15.7-4.7 6.7-13.3 7.6-13.7 7.6h-.3z"
		/>
		<path
			d="M43.1 98.7h-.4c-.4 0-9-1-13.7-7.6-2.9-4.2-3.6-9.5-2-15.7 1.1-4.5 1-7.9-.5-9.8-1.5-2-4.2-2.1-4.3-2.1-2.1 0-3.9-1.8-3.9-3.9 0-2.2 1.7-3.9 3.9-3.9.1 0 2.8-.1 4.3-2.1 1.4-1.9 1.6-5.3.5-9.8-1.6-6.2-.9-11.5 2-15.7 4.7-6.7 13.3-7.6 13.7-7.6 2.2-.2 4.1 1.4 4.3 3.5.2 2.2-1.4 4.1-3.5 4.3-.1 0-5.5.7-8.1 4.4-1.5 2.2-1.8 5.3-.8 9.2 1.8 7.1 1.2 12.7-1.9 16.6-.3.4-.7.8-1 1.2.3.4.7.7 1 1.2 3.1 3.9 3.7 9.5 1.9 16.6-1 3.9-.7 7 .8 9.2 2.6 3.7 8 4.4 8.1 4.4 2.2.2 3.7 2.1 3.5 4.3-.2 2-1.9 3.5-3.9 3.5z"
		/>
	</g>

	<!-- Código -->
	<g>
		<path
			fill="#64748B"
			d="M73 46.7H52a2.4 2.4 0 0 1 0-4.8h21.1a2.4 2.4 0 0 1 0 4.8z"
		/>
		<path
			fill="#8B5CF6"
			d="M96.6 46.7H83.4a2.4 2.4 0 0 1 0-4.8h13.2a2.4 2.4 0 0 1 0 4.8z"
		/>
		<path
			fill="#3B82F6"
			d="M56.6 36.3H43.4a2.4 2.4 0 0 1 0-4.8h13.2a2.4 2.4 0 0 1 0 4.8z"
		/>
		<path
			fill="#22D3EE"
			d="M73.2 36.3h-6.5a2.4 2.4 0 0 1 0-4.8h6.5a2.4 2.4 0 0 1 0 4.8z"
		/>
		<path
			fill="#4338CA"
			d="M93.6 57.2h-24a2.4 2.4 0 0 1 0-4.8h24a2.4 2.4 0 0 1 0 4.8z"
		/>
		<path
			fill="#0EA5E9"
			d="M61.3 57.2h-9.5a2.4 2.4 0 0 1 0-4.8h9.5a2.4 2.4 0 0 1 0 4.8z"
		/>
		<path
			fill="#22D3EE"
			d="M70.2 66.7H43.4a2.4 2.4 0 0 1 0-4.8h26.9a2.4 2.4 0 0 1 0 4.8z"
		/>
		<path
			fill="#0EA5E9"
			d="M64.4 87.7h-21a2.4 2.4 0 0 1 0-4.8h21.1a2.4 2.4 0 0 1 0 4.8z"
		/>
		<path
			fill="#4338CA"
			d="M88.6 87.7H75.4a2.4 2.4 0 0 1 0-4.8h13.2a2.4 2.4 0 0 1 0 4.8z"
		/>
		<path
			fill="#64748B"
			d="M58.5 77.2H52a2.4 2.4 0 0 1 0-4.8h6.5a2.4 2.4 0 0 1 0 4.8z"
		/>
		<path
			fill="#8B5CF6"
			d="M75.7 77.2h-6.5a2.4 2.4 0 0 1 0-4.8h6.5a2.4 2.4 0 0 1 0 4.8z"
		/>
		<path
			fill="#3B82F6"
			d="M87.5 66.7H81a2.4 2.4 0 0 1 0-4.8h6.5a2.4 2.4 0 0 1 0 4.8z"
		/>

		<!-- Puntos -->
		<circle fill="#E2E8F0" cx="43.2" cy="44.3" r="2.4" />
		<circle fill="#E2E8F0" cx="43.2" cy="54.9" r="2.4" />
		<circle fill="#E2E8F0" cx="43.2" cy="74.8" r="2.4" />
	</g>
</svg>