<?xml version="1.0" encoding="utf-8"?>
<!-- Generator: Adobe Illustrator 25.3.0, SVG Export Plug-In . SVG Version: 6.00 Build 0)  -->
<svg version="1.1" xmlns="http://www.w3.org/2000/svg" xmlns:xlink="http://www.w3.org/1999/xlink" x="0px" y="0px"
	 viewBox="0 0 140.8 119.1" style="enable-background:new 0 0 140.8 119.1;" xml:space="preserve">
<style type="text/css">
	.st0{display:none;}
	.st1{display:inline;fill:#111827;}
	.st2{opacity:0.9;fill:#CBD5E1;}
	.st3{fill:#FFF186;}
	.st4{fill:#0585CC;}
	.st5{fill:#D5AAD0;}
	.st6{fill:#EC6469;}
	.st7{fill:#8EC89A;}
	.st8{fill:#F9B66B;}
</style>
<g id="Fondo" class="st0">
	<rect x="-2.9" y="-2" class="st1" width="146.6" height="123.2"/>
</g>
<g id="Logo">
	<g>
		<g id="Corchetes">
			<g>
				<path class="st2" d="M97.8,98.7c-2,0-3.7-1.5-3.9-3.5c-0.2-2.2,1.4-4.1,3.5-4.3c0.1,0,5.5-0.7,8.1-4.4c1.5-2.2,1.8-5.3,0.8-9.2
					c-1.8-7.1-1.2-12.7,1.9-16.6c0.3-0.4,0.7-0.8,1-1.2c-0.3-0.4-0.7-0.7-1-1.2c-3.1-3.9-3.7-9.5-1.9-16.6c1-3.9,0.7-7-0.9-9.2
					c-2.6-3.7-8-4.3-8-4.3c-2.2-0.2-3.7-2.1-3.5-4.3c0.2-2.2,2.1-3.7,4.3-3.5c0.4,0,9,1,13.7,7.6c2.9,4.2,3.6,9.5,2,15.7
					c-1.2,4.5-1,7.9,0.5,9.8c1.5,1.9,4.2,2,4.2,2c2.2,0,3.9,1.8,3.9,3.9c0,2.2-1.7,3.9-3.9,3.9c-0.1,0-2.8,0.1-4.3,2.1
					c-1.4,1.9-1.6,5.3-0.5,9.8c1.6,6.2,0.9,11.5-2,15.7c-4.7,6.7-13.3,7.6-13.7,7.6C98,98.7,97.9,98.7,97.8,98.7z M118.6,63.5
					L118.6,63.5L118.6,63.5z"/>
				<path class="st2" d="M43,98.7c-0.1,0-0.3,0-0.4,0c-0.4,0-9-1-13.7-7.6c-2.9-4.2-3.6-9.5-2-15.7c1.1-4.5,1-7.9-0.5-9.8
					c-1.5-2-4.2-2.1-4.3-2.1c-2.1,0-3.9-1.8-3.9-3.9c0-2.2,1.7-3.9,3.9-3.9c0.1,0,2.8-0.1,4.3-2.1c1.4-1.9,1.6-5.3,0.5-9.8
					c-1.6-6.2-0.9-11.5,2-15.7c4.7-6.7,13.3-7.6,13.7-7.6c2.2-0.2,4.1,1.4,4.3,3.5c0.2,2.2-1.4,4.1-3.5,4.3c-0.1,0-5.5,0.7-8.1,4.4
					c-1.5,2.2-1.8,5.3-0.8,9.2c1.8,7.1,1.2,12.7-1.9,16.6c-0.3,0.4-0.7,0.8-1,1.2c0.3,0.4,0.7,0.7,1,1.2c3.1,3.9,3.7,9.5,1.9,16.6
					c-1,3.9-0.7,7,0.8,9.2c2.6,3.7,8,4.4,8.1,4.4c2.2,0.2,3.7,2.1,3.5,4.3C46.7,97.2,45,98.7,43,98.7z M22.1,63.5L22.1,63.5
					L22.1,63.5z"/>
			</g>
		</g>
		<g id="Código">
			<g>
				<path class="st3" d="M68.9,46.7H47.9c-1.3,0-2.4-1.1-2.4-2.4l0,0c0-1.3,1.1-2.4,2.4-2.4h21.1c1.3,0,2.4,1.1,2.4,2.4l0,0
					C71.3,45.7,70.2,46.7,68.9,46.7z"/>
				<path class="st4" d="M96.5,36.3H69.6c-1.3,0-2.4-1.1-2.4-2.4l0,0c0-1.3,1.1-2.4,2.4-2.4h26.9c1.3,0,2.4,1.1,2.4,2.4l0,0
					C98.9,35.2,97.8,36.3,96.5,36.3z"/>
				<path class="st5" d="M90.5,46.7H77.3c-1.3,0-2.4-1.1-2.4-2.4l0,0c0-1.3,1.1-2.4,2.4-2.4h13.2c1.3,0,2.4,1.1,2.4,2.4l0,0
					C92.8,45.7,91.8,46.7,90.5,46.7z"/>
				<path class="st6" d="M58.2,36.3h-6.5c-1.3,0-2.4-1.1-2.4-2.4l0,0c0-1.3,1.1-2.4,2.4-2.4h6.5c1.3,0,2.4,1.1,2.4,2.4l0,0
					C60.6,35.2,59.5,36.3,58.2,36.3z"/>
				<path class="st6" d="M96.5,57.2h-24c-1.3,0-2.4-1.1-2.4-2.4l0,0c0-1.3,1.1-2.4,2.4-2.4h24c1.3,0,2.4,1.1,2.4,2.4l0,0
					C98.9,56.2,97.8,57.2,96.5,57.2z"/>
				<path class="st7" d="M63.2,57.2h-9.5c-1.3,0-2.4-1.1-2.4-2.4l0,0c0-1.3,1.1-2.4,2.4-2.4h9.5c1.3,0,2.4,1.1,2.4,2.4l0,0
					C65.5,56.2,64.5,57.2,63.2,57.2z"/>
			</g>
			<g>
				<path class="st8" d="M71.2,66.7H44.3c-1.3,0-2.4-1.1-2.4-2.4l0,0c0-1.3,1.1-2.4,2.4-2.4h26.9c1.3,0,2.4,1.1,2.4,2.4l0,0
					C73.6,65.6,72.5,66.7,71.2,66.7z"/>
				<path class="st6" d="M68.9,87.7H47.9c-1.3,0-2.4-1.1-2.4-2.4l0,0c0-1.3,1.1-2.4,2.4-2.4h21.1c1.3,0,2.4,1.1,2.4,2.4l0,0
					C71.3,86.6,70.2,87.7,68.9,87.7z"/>
				<path class="st3" d="M96.5,77.2H69.6c-1.3,0-2.4-1.1-2.4-2.4l0,0c0-1.3,1.1-2.4,2.4-2.4h26.9c1.3,0,2.4,1.1,2.4,2.4l0,0
					C98.9,76.1,97.8,77.2,96.5,77.2z"/>
				<path class="st4" d="M90.3,66.7h-9.7c-1.3,0-2.4-1.1-2.4-2.4l0,0c0-1.3,1.1-2.4,2.4-2.4h9.7c1.3,0,2.4,1.1,2.4,2.4l0,0
					C92.7,65.6,91.6,66.7,90.3,66.7z"/>
				<path class="st7" d="M91.5,87.7H78.3c-1.3,0-2.4-1.1-2.4-2.4l0,0c0-1.3,1.1-2.4,2.4-2.4h13.2c1.3,0,2.4,1.1,2.4,2.4l0,0
					C93.8,86.6,92.8,87.7,91.5,87.7z"/>
				<path class="st4" d="M58.2,77.2h-6.5c-1.3,0-2.4-1.1-2.4-2.4l0,0c0-1.3,1.1-2.4,2.4-2.4h6.5c1.3,0,2.4,1.1,2.4,2.4l0,0
					C60.6,76.1,59.5,77.2,58.2,77.2z"/>
			</g>
		</g>
	</g>
</g>
</svg>
